<?xml version="1.0" encoding="UTF-8"?>
<!DOCTYPE svg PUBLIC "-//W3C//DTD SVG 1.1//EN" "http://www.w3.org/Graphics/SVG/1.1/DTD/svg11.dtd">
<svg xmlns="http://www.w3.org/2000/svg" version="1.1" width="869px" height="869px" style="shape-rendering:geometricPrecision; text-rendering:geometricPrecision; image-rendering:optimizeQuality; fill-rule:evenodd; clip-rule:evenodd" xmlns:xlink="http://www.w3.org/1999/xlink">
<g><path style="opacity:0.992" fill="#fefefe" d="M 394.5,-0.5 C 420.833,-0.5 447.167,-0.5 473.5,-0.5C 620.967,17.5708 733.467,89.5708 811,215.5C 842.98,271.098 862.147,330.765 868.5,394.5C 868.5,420.833 868.5,447.167 868.5,473.5C 851.104,617.865 781.437,729.031 659.5,807C 614.088,833.806 565.422,852.14 513.5,862C 500.008,864.083 486.674,866.249 473.5,868.5C 447.167,868.5 420.833,868.5 394.5,868.5C 247.033,850.429 134.533,778.429 57,652.5C 25.2747,596.825 6.10799,537.159 -0.5,473.5C -0.5,447.167 -0.5,420.833 -0.5,394.5C 16.8094,251.645 85.4761,141.145 205.5,63C 263.693,27.5349 326.693,6.36824 394.5,-0.5 Z"/></g>
<g><path style="opacity:1" fill="#eeeeee" d="M 342.5,275.5 C 351.764,289.098 363.097,300.765 376.5,310.5C 377.305,312.213 378.305,313.879 379.5,315.5C 384.291,318.127 388.291,321.627 391.5,326C 398.186,328.176 404.52,331.176 410.5,335C 426.876,339.38 443.209,339.38 459.5,335C 467.983,331.364 476.316,327.364 484.5,323C 494.968,313.867 505.135,304.367 515,294.5C 520.232,287.05 525.232,279.383 530,271.5C 531.516,266.477 533.016,261.477 534.5,256.5C 535.935,255.21 536.935,253.544 537.5,251.5C 542.283,247.362 547.283,243.695 552.5,240.5C 570.653,230.519 577.82,215.186 574,194.5C 570.688,189.196 567.021,184.196 563,179.5C 563.93,165.883 564.43,152.216 564.5,138.5C 564.333,130.5 564.167,122.5 564,114.5C 563.333,112.5 562.667,110.5 562,108.5C 558.607,104.381 556.274,99.7142 555,94.5C 547.955,84.7804 539.122,77.2804 528.5,72C 514.626,58.5737 498.96,47.907 481.5,40C 475.804,39.2264 470.137,38.3931 464.5,37.5C 461.833,37.5 459.167,37.5 456.5,37.5C 454.236,36.7814 451.903,36.448 449.5,36.5C 436.407,33.0548 423.074,31.7215 409.5,32.5C 447.115,24.4574 481.782,31.6241 513.5,54C 526.642,63.3285 539.142,73.4951 551,84.5C 564.354,101.059 570.854,120.059 570.5,141.5C 570.155,153.282 568.822,164.949 566.5,176.5C 566.719,177.938 567.219,179.271 568,180.5C 576.356,187.037 580.19,195.704 579.5,206.5C 579.712,215.362 577.212,223.362 572,230.5C 567.5,235 563,239.5 558.5,244C 553.42,247.624 548.253,251.124 543,254.5C 531.707,279.924 515.873,302.091 495.5,321C 458.232,351.145 420.232,352.145 381.5,324C 364.879,310.567 351.879,294.4 342.5,275.5 Z"/></g>
<g><path style="opacity:1" fill="#77797c" d="M 409.5,32.5 C 406.091,33.9034 402.425,34.5701 398.5,34.5C 401.876,32.9177 405.542,32.2511 409.5,32.5 Z"/></g>
<g><path style="opacity:1" fill="#828486" d="M 449.5,36.5 C 451.903,36.448 454.236,36.7814 456.5,37.5C 456.5,37.8333 456.5,38.1667 456.5,38.5C 453.933,38.2785 451.599,37.6118 449.5,36.5 Z"/></g>
<g><path style="opacity:1" fill="#171b20" d="M 409.5,32.5 C 423.074,31.7215 436.407,33.0548 449.5,36.5C 451.599,37.6118 453.933,38.2785 456.5,38.5C 463.197,41.1849 469.863,43.8516 476.5,46.5C 482.936,50.5617 489.269,54.8951 495.5,59.5C 502.158,64.4974 508.825,69.4974 515.5,74.5C 521.538,79.5367 526.871,85.2034 531.5,91.5C 541.053,109.192 544.22,128.192 541,148.5C 539.89,159.649 538.057,170.649 535.5,181.5C 541.341,180.444 546.007,182.111 549.5,186.5C 549.833,187.167 550.167,187.833 550.5,188.5C 552.021,196.31 551.521,203.977 549,211.5C 543.194,218.64 536.694,225.14 529.5,231C 525.704,232.678 521.871,234.178 518,235.5C 506.858,263.952 489.691,288.119 466.5,308C 454.846,316.236 442.179,321.736 428.5,324.5C 420.825,324.32 413.158,323.986 405.5,323.5C 398.47,322.834 392.136,320.501 386.5,316.5C 383.167,314.5 379.833,312.5 376.5,310.5C 363.097,300.765 351.764,289.098 342.5,275.5C 337.767,267.791 333.1,260.124 328.5,252.5C 327.034,248.779 325.367,245.112 323.5,241.5C 322.971,235.968 319.971,233.301 314.5,233.5C 307.324,229.667 300.99,224.667 295.5,218.5C 287.834,209.482 285.667,199.149 289,187.5C 290.484,184.179 292.984,182.179 296.5,181.5C 299.167,181.833 301.833,182.167 304.5,182.5C 304.737,181.209 304.404,180.209 303.5,179.5C 302.019,173.243 301.019,166.91 300.5,160.5C 300.435,157.572 299.768,154.905 298.5,152.5C 298.5,150.833 298.5,149.167 298.5,147.5C 298.434,135.819 298.767,124.152 299.5,112.5C 301.589,102.566 305.756,93.5656 312,85.5C 329.862,68.1671 349.696,53.6671 371.5,42C 380.183,38.3235 389.183,35.8235 398.5,34.5C 402.425,34.5701 406.091,33.9034 409.5,32.5 Z"/></g>
<g><path style="opacity:1" fill="#dddddd" d="M 464.5,37.5 C 470.137,38.3931 475.804,39.2264 481.5,40C 498.96,47.907 514.626,58.5737 528.5,72C 539.122,77.2804 547.955,84.7804 555,94.5C 556.274,99.7142 558.607,104.381 562,108.5C 562.667,110.5 563.333,112.5 564,114.5C 564.167,122.5 564.333,130.5 564.5,138.5C 564.43,152.216 563.93,165.883 563,179.5C 567.021,184.196 570.688,189.196 574,194.5C 577.82,215.186 570.653,230.519 552.5,240.5C 556.824,236.676 560.991,232.676 565,228.5C 572.851,217.336 574.518,205.336 570,192.5C 566.964,189.296 563.797,186.296 560.5,183.5C 559.575,175.033 560.408,166.7 563,158.5C 566.396,137.227 563.062,117.227 553,98.5C 547.099,90.6084 540.599,83.4417 533.5,77C 524.479,71.1556 515.812,64.8222 507.5,58C 493.749,49.7073 479.416,42.874 464.5,37.5 Z"/></g>
<g><path style="opacity:1" fill="#8e8e8f" d="M 495.5,59.5 C 502.426,61.7198 508.593,65.3864 514,70.5C 514.791,71.745 515.291,73.0783 515.5,74.5C 508.825,69.4974 502.158,64.4974 495.5,59.5 Z"/></g>
<g><path style="opacity:1" fill="#c5c5c5" d="M 456.5,38.5 C 456.5,38.1667 456.5,37.8333 456.5,37.5C 459.167,37.5 461.833,37.5 464.5,37.5C 479.416,42.874 493.749,49.7073 507.5,58C 515.812,64.8222 524.479,71.1556 533.5,77C 540.599,83.4417 547.099,90.6084 553,98.5C 563.062,117.227 566.396,137.227 563,158.5C 560.408,166.7 559.575,175.033 560.5,183.5C 559.2,181.777 558.533,179.61 558.5,177C 561.244,160.271 562.077,143.437 561,126.5C 559.49,115.631 555.824,105.631 550,96.5C 543.583,90.5728 537.083,84.9061 530.5,79.5C 530.092,78.3569 529.425,77.3569 528.5,76.5C 521.507,72.8447 515.507,68.0114 510.5,62C 500.833,57 491.167,52 481.5,47C 479.866,46.5065 478.199,46.3398 476.5,46.5C 469.863,43.8516 463.197,41.1849 456.5,38.5 Z"/></g>
<g><path style="opacity:1" fill="#8e8e8e" d="M 515.5,74.5 C 542.577,88.2701 556.243,110.603 556.5,141.5C 556.049,151.917 554.882,162.25 553,172.5C 552.333,176.833 552.333,181.167 553,185.5C 558.82,188.883 563.153,193.55 566,199.5C 567.056,207.396 566.223,215.063 563.5,222.5C 553.812,230.333 543.646,237.666 533,244.5C 525.29,259.006 517.457,273.34 509.5,287.5C 500.409,295.418 491.409,303.584 482.5,312C 476.674,315.671 471.007,319.504 465.5,323.5C 449.113,331.434 432.446,332.434 415.5,326.5C 441.509,331.083 464.509,324.916 484.5,308C 504.344,289.477 519.511,267.644 530,242.5C 531.873,240.291 534.04,238.458 536.5,237C 546.819,232.351 554.986,225.185 561,215.5C 563,209.5 563,203.5 561,197.5C 556.693,195.354 553.193,192.354 550.5,188.5C 550.167,187.833 549.833,187.167 549.5,186.5C 549.38,184.801 549.046,183.135 548.5,181.5C 552.764,163.001 553.931,144.334 552,125.5C 549.711,112.419 543.877,101.253 534.5,92C 533.552,91.5172 532.552,91.3505 531.5,91.5C 526.871,85.2034 521.538,79.5367 515.5,74.5 Z"/></g>
<g><path style="opacity:1" fill="#828383" d="M 531.5,91.5 C 532.552,91.3505 533.552,91.5172 534.5,92C 543.877,101.253 549.711,112.419 552,125.5C 553.931,144.334 552.764,163.001 548.5,181.5C 549.046,183.135 549.38,184.801 549.5,186.5C 546.007,182.111 541.341,180.444 535.5,181.5C 538.057,170.649 539.89,159.649 541,148.5C 544.22,128.192 541.053,109.192 531.5,91.5 Z"/></g>
<g><path style="opacity:1" fill="#9f9f9f" d="M 476.5,46.5 C 478.199,46.3398 479.866,46.5065 481.5,47C 491.167,52 500.833,57 510.5,62C 515.507,68.0114 521.507,72.8447 528.5,76.5C 529.425,77.3569 530.092,78.3569 530.5,79.5C 530.369,80.2389 530.536,80.9056 531,81.5C 534.667,84.8333 538.333,88.1667 542,91.5C 543.537,94.573 545.037,97.573 546.5,100.5C 547.822,100.33 548.989,100.663 550,101.5C 553.889,109.039 556.555,117.039 558,125.5C 559.134,143.103 558.301,160.603 555.5,178C 554.619,182.159 556.119,184.992 560,186.5C 562.302,190.146 564.636,193.813 567,197.5C 567.667,203.5 567.667,209.5 567,215.5C 566.861,218.445 565.694,220.779 563.5,222.5C 566.223,215.063 567.056,207.396 566,199.5C 563.153,193.55 558.82,188.883 553,185.5C 552.333,181.167 552.333,176.833 553,172.5C 554.882,162.25 556.049,151.917 556.5,141.5C 556.243,110.603 542.577,88.2701 515.5,74.5C 515.291,73.0783 514.791,71.745 514,70.5C 508.593,65.3864 502.426,61.7198 495.5,59.5C 489.269,54.8951 482.936,50.5617 476.5,46.5 Z"/></g>
<g><path style="opacity:1" fill="#4a4e52" d="M 299.5,112.5 C 298.767,124.152 298.434,135.819 298.5,147.5C 297.834,143.18 297.501,138.68 297.5,134C 297.364,126.609 298.031,119.443 299.5,112.5 Z"/></g>
<g><path style="opacity:1" fill="#b4b4b4" d="M 530.5,79.5 C 537.083,84.9061 543.583,90.5728 550,96.5C 555.824,105.631 559.49,115.631 561,126.5C 562.077,143.437 561.244,160.271 558.5,177C 558.533,179.61 559.2,181.777 560.5,183.5C 562.051,186.563 564.218,189.229 567,191.5C 570.315,199.125 571.315,207.125 570,215.5C 562.904,228.758 552.404,238.425 538.5,244.5C 543.603,240.439 548.936,236.606 554.5,233C 557.581,229.487 560.581,225.987 563.5,222.5C 565.694,220.779 566.861,218.445 567,215.5C 567.667,209.5 567.667,203.5 567,197.5C 564.636,193.813 562.302,190.146 560,186.5C 556.119,184.992 554.619,182.159 555.5,178C 558.301,160.603 559.134,143.103 558,125.5C 556.555,117.039 553.889,109.039 550,101.5C 548.989,100.663 547.822,100.33 546.5,100.5C 545.037,97.573 543.537,94.573 542,91.5C 538.333,88.1667 534.667,84.8333 531,81.5C 530.536,80.9056 530.369,80.2389 530.5,79.5 Z"/></g>
<g><path style="opacity:1" fill="#696a6d" d="M 298.5,152.5 C 299.768,154.905 300.435,157.572 300.5,160.5C 299.883,160.389 299.383,160.056 299,159.5C 298.503,157.19 298.337,154.857 298.5,152.5 Z"/></g>
<g><path style="opacity:1" fill="#707376" d="M 303.5,179.5 C 304.404,180.209 304.737,181.209 304.5,182.5C 301.833,182.167 299.167,181.833 296.5,181.5C 298.357,180.246 300.357,180.246 302.5,181.5C 303.298,181.043 303.631,180.376 303.5,179.5 Z"/></g>
<g><path style="opacity:1" fill="#838383" d="M 550.5,188.5 C 553.193,192.354 556.693,195.354 561,197.5C 563,203.5 563,209.5 561,215.5C 554.986,225.185 546.819,232.351 536.5,237C 534.04,238.458 531.873,240.291 530,242.5C 519.511,267.644 504.344,289.477 484.5,308C 464.509,324.916 441.509,331.083 415.5,326.5C 414.833,326.5 414.5,326.167 414.5,325.5C 419.363,325.819 424.03,325.486 428.5,324.5C 442.179,321.736 454.846,316.236 466.5,308C 489.691,288.119 506.858,263.952 518,235.5C 521.871,234.178 525.704,232.678 529.5,231C 536.694,225.14 543.194,218.64 549,211.5C 551.521,203.977 552.021,196.31 550.5,188.5 Z"/></g>
<g><path style="opacity:1" fill="#eaeaea" d="M 295.5,218.5 C 300.99,224.667 307.324,229.667 314.5,233.5C 316.279,235.463 317.946,237.629 319.5,240C 320.745,240.791 322.078,241.291 323.5,241.5C 325.367,245.112 327.034,248.779 328.5,252.5C 317.813,247.218 308.646,239.885 301,230.5C 298.35,226.867 296.517,222.867 295.5,218.5 Z"/></g>
<g><path style="opacity:1" fill="#bababa" d="M 314.5,233.5 C 319.971,233.301 322.971,235.968 323.5,241.5C 322.078,241.291 320.745,240.791 319.5,240C 317.946,237.629 316.279,235.463 314.5,233.5 Z"/></g>
<g><path style="opacity:1" fill="#c5c5c5" d="M 560.5,183.5 C 563.797,186.296 566.964,189.296 570,192.5C 574.518,205.336 572.851,217.336 565,228.5C 560.991,232.676 556.824,236.676 552.5,240.5C 547.283,243.695 542.283,247.362 537.5,251.5C 536.935,253.544 535.935,255.21 534.5,256.5C 531.609,261.623 528.776,266.956 526,272.5C 523.662,275.338 521.162,278.004 518.5,280.5C 519.758,278.313 520.758,275.98 521.5,273.5C 522.588,269.557 524.754,266.224 528,263.5C 530.971,256.892 534.471,250.559 538.5,244.5C 552.404,238.425 562.904,228.758 570,215.5C 571.315,207.125 570.315,199.125 567,191.5C 564.218,189.229 562.051,186.563 560.5,183.5 Z"/></g>
<g><path style="opacity:1" fill="#aeaeae" d="M 521.5,273.5 C 520.758,275.98 519.758,278.313 518.5,280.5C 504.885,305.164 484.885,322.664 458.5,333C 438.377,337.916 419.044,335.916 400.5,327C 397.714,324.274 394.381,322.607 390.5,322C 388.536,320.549 387.203,318.716 386.5,316.5C 392.136,320.501 398.47,322.834 405.5,323.5C 405.842,324.338 406.508,324.672 407.5,324.5C 409.649,326.746 412.316,328.246 415.5,329C 449.683,335.998 478.183,326.498 501,300.5C 507.21,293.963 512.21,286.63 516,278.5C 518.276,277.238 520.109,275.571 521.5,273.5 Z"/></g>
<g><path style="opacity:1" fill="#9b9b9b" d="M 563.5,222.5 C 560.581,225.987 557.581,229.487 554.5,233C 548.936,236.606 543.603,240.439 538.5,244.5C 534.471,250.559 530.971,256.892 528,263.5C 524.754,266.224 522.588,269.557 521.5,273.5C 520.109,275.571 518.276,277.238 516,278.5C 512.21,286.63 507.21,293.963 501,300.5C 478.183,326.498 449.683,335.998 415.5,329C 412.316,328.246 409.649,326.746 407.5,324.5C 409.806,324.993 412.139,325.326 414.5,325.5C 414.5,326.167 414.833,326.5 415.5,326.5C 432.446,332.434 449.113,331.434 465.5,323.5C 471.007,319.504 476.674,315.671 482.5,312C 491.409,303.584 500.409,295.418 509.5,287.5C 517.457,273.34 525.29,259.006 533,244.5C 543.646,237.666 553.812,230.333 563.5,222.5 Z"/></g>
<g><path style="opacity:1" fill="#55585b" d="M 323.5,333.5 C 321.162,335.04 318.495,335.706 315.5,335.5C 317.905,334.232 320.572,333.565 323.5,333.5 Z"/></g>
<g><path style="opacity:1" fill="#d1d1d1" d="M 534.5,256.5 C 533.016,261.477 531.516,266.477 530,271.5C 525.232,279.383 520.232,287.05 515,294.5C 505.135,304.367 494.968,313.867 484.5,323C 476.316,327.364 467.983,331.364 459.5,335C 443.209,339.38 426.876,339.38 410.5,335C 404.52,331.176 398.186,328.176 391.5,326C 388.291,321.627 384.291,318.127 379.5,315.5C 378.305,313.879 377.305,312.213 376.5,310.5C 379.833,312.5 383.167,314.5 386.5,316.5C 387.203,318.716 388.536,320.549 390.5,322C 394.381,322.607 397.714,324.274 400.5,327C 419.044,335.916 438.377,337.916 458.5,333C 484.885,322.664 504.885,305.164 518.5,280.5C 521.162,278.004 523.662,275.338 526,272.5C 528.776,266.956 531.609,261.623 534.5,256.5 Z"/></g>
<g><path style="opacity:1" fill="#494b4d" d="M 405.5,323.5 C 413.158,323.986 420.825,324.32 428.5,324.5C 424.03,325.486 419.363,325.819 414.5,325.5C 412.139,325.326 409.806,324.993 407.5,324.5C 406.508,324.672 405.842,324.338 405.5,323.5 Z"/></g>
<g><path style="opacity:1" fill="#535558" d="M 309.5,336.5 C 307.898,338.074 305.898,338.741 303.5,338.5C 305.102,336.926 307.102,336.259 309.5,336.5 Z"/></g>
<g><path style="opacity:1" fill="#d2d2d2" d="M 508.5,331.5 C 509.167,331.5 509.833,331.5 510.5,331.5C 520.712,330.814 530.378,332.647 539.5,337C 564.589,340.867 588.255,348.367 610.5,359.5C 606.538,358.624 602.538,357.958 598.5,357.5C 597.833,357.5 597.5,357.167 597.5,356.5C 588.048,350.957 577.714,347.624 566.5,346.5C 547.236,340.851 527.902,335.851 508.5,331.5 Z"/></g>
<g><path style="opacity:1" fill="#525559" d="M 279.5,344.5 C 277.605,346.241 275.272,347.241 272.5,347.5C 274.395,345.759 276.728,344.759 279.5,344.5 Z"/></g>
<g><path style="opacity:1" fill="#5e6164" d="M 269.5,347.5 C 269.389,348.117 269.056,348.617 268.5,349C 266.134,349.44 263.801,349.94 261.5,350.5C 261.611,349.883 261.944,349.383 262.5,349C 264.866,348.56 267.199,348.06 269.5,347.5 Z"/></g>
<g><path style="opacity:1" fill="#adaeae" d="M 566.5,346.5 C 577.714,347.624 588.048,350.957 597.5,356.5C 586.785,353.914 576.452,350.581 566.5,346.5 Z"/></g>
<g><path style="opacity:1" fill="#171b20" d="M 341.5,329.5 C 341.833,330.167 342.167,330.833 342.5,331.5C 343.6,332.605 344.267,333.938 344.5,335.5C 344.833,336.167 345.167,336.833 345.5,337.5C 346.415,339.754 347.748,341.754 349.5,343.5C 366.79,365.798 387.456,384.132 411.5,398.5C 413.176,400.834 415.509,401.834 418.5,401.5C 420.415,401.784 422.081,401.451 423.5,400.5C 425.75,399.87 427.75,398.87 429.5,397.5C 430.71,397.068 431.71,396.401 432.5,395.5C 454.928,381.247 474.428,363.58 491,342.5C 493.585,338.496 495.751,334.329 497.5,330C 499.488,329.82 501.488,329.986 503.5,330.5C 504.919,331.451 506.585,331.784 508.5,331.5C 527.902,335.851 547.236,340.851 566.5,346.5C 576.452,350.581 586.785,353.914 597.5,356.5C 597.5,357.167 597.833,357.5 598.5,357.5C 611.855,362.176 624.189,368.843 635.5,377.5C 638.215,380.214 640.549,383.214 642.5,386.5C 648.204,400.586 651.87,415.253 653.5,430.5C 653.291,431.086 652.957,431.586 652.5,432C 605.41,438.308 558.41,445.142 511.5,452.5C 503.933,452.782 496.599,453.782 489.5,455.5C 470.008,456.9 451.008,460.4 432.5,466C 430.316,467.363 428.316,468.863 426.5,470.5C 424.833,471.5 423.5,472.833 422.5,474.5C 421.5,474.833 420.833,475.5 420.5,476.5C 419.833,476.5 419.167,476.5 418.5,476.5C 416.451,473.45 413.784,471.117 410.5,469.5C 409.564,468.026 408.23,467.026 406.5,466.5C 403.977,465.149 401.311,463.983 398.5,463C 335.229,454.271 271.896,445.104 208.5,435.5C 206.5,435.5 204.5,435.5 202.5,435.5C 201.167,435.167 199.833,434.833 198.5,434.5C 196.565,433.85 194.565,433.517 192.5,433.5C 192.167,433.5 191.833,433.5 191.5,433.5C 190.365,431.787 188.698,431.12 186.5,431.5C 186.5,430.167 186.5,428.833 186.5,427.5C 187.341,425.621 187.675,423.621 187.5,421.5C 188.117,421.389 188.617,421.056 189,420.5C 189.498,417.518 189.665,414.518 189.5,411.5C 191.221,403.406 193.387,395.406 196,387.5C 198.748,382.748 202.248,378.581 206.5,375C 223.699,364.133 242.032,355.966 261.5,350.5C 263.801,349.94 266.134,349.44 268.5,349C 269.056,348.617 269.389,348.117 269.5,347.5C 270.5,347.5 271.5,347.5 272.5,347.5C 275.272,347.241 277.605,346.241 279.5,344.5C 287.471,342.373 295.471,340.373 303.5,338.5C 305.898,338.741 307.898,338.074 309.5,336.5C 311.5,336.167 313.5,335.833 315.5,335.5C 318.495,335.706 321.162,335.04 323.5,333.5C 329.355,331.549 335.355,330.216 341.5,329.5 Z"/></g>
<g><path style="opacity:1" fill="#868787" d="M 411.5,398.5 C 387.456,384.132 366.79,365.798 349.5,343.5C 351.927,342.026 354.26,342.193 356.5,344C 363.368,354.541 371.368,364.208 380.5,373C 381.5,373.333 382.5,373.667 383.5,374C 391.3,383.032 400.3,390.366 410.5,396C 411.252,396.671 411.586,397.504 411.5,398.5 Z"/></g>
<g><path style="opacity:1" fill="#eeeeee" d="M 432.5,395.5 C 431.71,396.401 430.71,397.068 429.5,397.5C 421.68,396.785 415.68,393.118 411.5,386.5C 407.543,384.408 403.876,381.908 400.5,379C 392.884,370.928 385.384,362.762 378,354.5C 374.851,349.402 371.517,344.402 368,339.5C 364.167,338.333 361.667,335.833 360.5,332C 358.444,331.689 356.444,331.189 354.5,330.5C 350.571,331.433 346.571,331.766 342.5,331.5C 342.167,330.833 341.833,330.167 341.5,329.5C 349.187,326.43 356.853,326.263 364.5,329C 382.111,356.446 404.778,378.613 432.5,395.5 Z"/></g>
<g><path style="opacity:1" fill="#e6e6e6" d="M 675.5,440.5 C 676.105,422.241 671.772,405.575 662.5,390.5C 661.681,386.147 659.348,382.647 655.5,380C 649.663,376.582 643.996,372.916 638.5,369C 631.137,365.407 623.471,362.574 615.5,360.5C 613.585,360.784 611.919,360.451 610.5,359.5C 588.255,348.367 564.589,340.867 539.5,337C 530.378,332.647 520.712,330.814 510.5,331.5C 512.925,329.634 515.759,328.634 519,328.5C 527.549,330.095 536.049,331.929 544.5,334C 563.292,340.114 582.292,345.448 601.5,350C 605.461,351.598 609.461,353.098 613.5,354.5C 614.386,355.325 614.719,356.325 614.5,357.5C 625.866,360.569 636.866,364.735 647.5,370C 650.032,372.447 652.366,375.114 654.5,378C 657.333,380.167 660.167,382.333 663,384.5C 673.513,401.873 677.68,420.54 675.5,440.5 Z"/></g>
<g><path style="opacity:1" fill="#9d9d9d" d="M 345.5,337.5 C 350.233,337.223 354.9,337.557 359.5,338.5C 364.661,347.027 370.328,355.361 376.5,363.5C 382.018,368.184 387.018,373.351 391.5,379C 400.957,385.958 409.957,393.458 418.5,401.5C 415.509,401.834 413.176,400.834 411.5,398.5C 411.586,397.504 411.252,396.671 410.5,396C 400.3,390.366 391.3,383.032 383.5,374C 382.5,373.667 381.5,373.333 380.5,373C 371.368,364.208 363.368,354.541 356.5,344C 354.26,342.193 351.927,342.026 349.5,343.5C 347.748,341.754 346.415,339.754 345.5,337.5 Z"/></g>
<g><path style="opacity:1" fill="#d0d0d0" d="M 615.5,360.5 C 623.471,362.574 631.137,365.407 638.5,369C 643.996,372.916 649.663,376.582 655.5,380C 659.348,382.647 661.681,386.147 662.5,390.5C 658.336,387.168 654.669,383.335 651.5,379C 648.89,377.519 646.223,376.352 643.5,375.5C 638.602,373.733 633.602,371.899 628.5,370C 624.425,366.382 620.092,363.216 615.5,360.5 Z"/></g>
<g><path style="opacity:1" fill="#d5d5d5" d="M 429.5,397.5 C 427.75,398.87 425.75,399.87 423.5,400.5C 418.584,399.073 414.917,396.073 412.5,391.5C 391.404,376.247 374.071,357.747 360.5,336C 355.177,335.501 349.844,335.334 344.5,335.5C 344.267,333.938 343.6,332.605 342.5,331.5C 346.571,331.766 350.571,331.433 354.5,330.5C 356.444,331.189 358.444,331.689 360.5,332C 361.667,335.833 364.167,338.333 368,339.5C 371.517,344.402 374.851,349.402 378,354.5C 385.384,362.762 392.884,370.928 400.5,379C 403.876,381.908 407.543,384.408 411.5,386.5C 415.68,393.118 421.68,396.785 429.5,397.5 Z"/></g>
<g><path style="opacity:1" fill="#8d8d8d" d="M 635.5,377.5 C 637.167,377.5 638.833,377.5 640.5,377.5C 640.285,379.179 640.952,380.179 642.5,380.5C 646.435,384.662 650.602,388.662 655,392.5C 659.827,405.482 663.327,418.815 665.5,432.5C 665.125,434.459 664.459,436.293 663.5,438C 597.265,448.224 530.932,457.891 464.5,467C 460.724,467.592 457.057,468.592 453.5,470C 447.903,473.128 442.236,475.961 436.5,478.5C 431.64,477.594 426.974,476.261 422.5,474.5C 423.5,472.833 424.833,471.5 426.5,470.5C 429.887,472.275 433.387,473.942 437,475.5C 445.279,469.612 454.446,465.779 464.5,464C 529.861,454.853 595.194,445.52 660.5,436C 662.852,435.424 663.852,433.924 663.5,431.5C 661.922,418.603 658.422,406.27 653,394.5C 650.142,390.786 646.642,388.12 642.5,386.5C 640.549,383.214 638.215,380.214 635.5,377.5 Z"/></g>
<g><path style="opacity:1" fill="#b7b7b7" d="M 344.5,335.5 C 349.844,335.334 355.177,335.501 360.5,336C 374.071,357.747 391.404,376.247 412.5,391.5C 414.917,396.073 418.584,399.073 423.5,400.5C 422.081,401.451 420.415,401.784 418.5,401.5C 409.957,393.458 400.957,385.958 391.5,379C 387.018,373.351 382.018,368.184 376.5,363.5C 370.328,355.361 364.661,347.027 359.5,338.5C 354.9,337.557 350.233,337.223 345.5,337.5C 345.167,336.833 344.833,336.167 344.5,335.5 Z"/></g>
<g><path style="opacity:1" fill="#818181" d="M 642.5,386.5 C 646.642,388.12 650.142,390.786 653,394.5C 658.422,406.27 661.922,418.603 663.5,431.5C 663.852,433.924 662.852,435.424 660.5,436C 595.194,445.52 529.861,454.853 464.5,464C 454.446,465.779 445.279,469.612 437,475.5C 433.387,473.942 429.887,472.275 426.5,470.5C 428.316,468.863 430.316,467.363 432.5,466C 451.008,460.4 470.008,456.9 489.5,455.5C 497.1,455.412 504.434,454.412 511.5,452.5C 558.41,445.142 605.41,438.308 652.5,432C 652.957,431.586 653.291,431.086 653.5,430.5C 651.87,415.253 648.204,400.586 642.5,386.5 Z"/></g>
<g><path style="opacity:1" fill="#9a9a9a" d="M 642.5,380.5 C 643.695,380.678 644.862,381.011 646,381.5C 647.853,383.685 650.02,385.518 652.5,387C 655.123,390.412 657.623,393.912 660,397.5C 661.079,403.066 662.745,408.399 665,413.5C 666.658,421.103 667.325,428.77 667,436.5C 665.786,438.049 664.286,439.215 662.5,440C 643.834,442.667 625.168,445.333 606.5,448C 605.944,448.383 605.611,448.883 605.5,449.5C 598.282,451.055 590.948,452.055 583.5,452.5C 541.593,458.157 499.593,463.99 457.5,470C 450.724,472.554 444.391,475.887 438.5,480C 436.153,480.334 433.819,480.167 431.5,479.5C 428.647,478.811 426.147,477.478 424,475.5C 422.862,475.989 421.695,476.322 420.5,476.5C 420.833,475.5 421.5,474.833 422.5,474.5C 426.974,476.261 431.64,477.594 436.5,478.5C 442.236,475.961 447.903,473.128 453.5,470C 457.057,468.592 460.724,467.592 464.5,467C 530.932,457.891 597.265,448.224 663.5,438C 664.459,436.293 665.125,434.459 665.5,432.5C 663.327,418.815 659.827,405.482 655,392.5C 650.602,388.662 646.435,384.662 642.5,380.5 Z"/></g>
<g><path style="opacity:1" fill="#46494c" d="M 189.5,411.5 C 189.665,414.518 189.498,417.518 189,420.5C 188.617,421.056 188.117,421.389 187.5,421.5C 187.322,417.878 187.989,414.544 189.5,411.5 Z"/></g>
<g><path style="opacity:1" fill="#a7a7a7" d="M 598.5,357.5 C 602.538,357.958 606.538,358.624 610.5,359.5C 611.919,360.451 613.585,360.784 615.5,360.5C 620.092,363.216 624.425,366.382 628.5,370C 633.602,371.899 638.602,373.733 643.5,375.5C 658.826,388.474 667.659,405.14 670,425.5C 670.791,429.926 670.457,434.259 669,438.5C 666.53,440.438 663.696,441.604 660.5,442C 642.19,444.735 623.857,447.235 605.5,449.5C 605.611,448.883 605.944,448.383 606.5,448C 625.168,445.333 643.834,442.667 662.5,440C 664.286,439.215 665.786,438.049 667,436.5C 667.325,428.77 666.658,421.103 665,413.5C 662.745,408.399 661.079,403.066 660,397.5C 657.623,393.912 655.123,390.412 652.5,387C 650.02,385.518 647.853,383.685 646,381.5C 644.862,381.011 643.695,380.678 642.5,380.5C 640.952,380.179 640.285,379.179 640.5,377.5C 638.833,377.5 637.167,377.5 635.5,377.5C 624.189,368.843 611.855,362.176 598.5,357.5 Z"/></g>
<g><path style="opacity:1" fill="#626568" d="M 186.5,427.5 C 186.5,428.833 186.5,430.167 186.5,431.5C 188.698,431.12 190.365,431.787 191.5,433.5C 186.445,433.924 184.778,431.924 186.5,427.5 Z"/></g>
<g><path style="opacity:1" fill="#eaeaea" d="M 191.5,433.5 C 191.833,433.5 192.167,433.5 192.5,433.5C 193.531,434.249 194.698,434.915 196,435.5C 197.514,442.675 202.014,446.842 209.5,448C 274.812,456.665 340.145,465.665 405.5,475C 412.428,477.476 419.428,479.643 426.5,481.5C 426.5,483.5 427.5,484.5 429.5,484.5C 429.721,485.735 430.388,486.735 431.5,487.5C 438.667,490.062 444.333,488.229 448.5,482C 454.365,478.488 460.698,476.155 467.5,475C 535.099,466.676 602.432,457.176 669.5,446.5C 667.852,447.927 665.852,448.76 663.5,449C 638.009,452.138 612.676,456.138 587.5,461C 545.014,467.117 502.514,472.951 460,478.5C 453.239,484.758 445.406,489.091 436.5,491.5C 432.828,490.33 429.162,489.163 425.5,488C 424.257,486.846 423.257,485.512 422.5,484C 416.679,481.727 410.679,480.06 404.5,479C 342.588,469.678 280.588,461.345 218.5,454C 220.957,455.562 223.624,456.562 226.5,457C 288.221,469.726 349.554,483.726 410.5,499C 416.119,500.476 421.119,502.976 425.5,506.5C 410.066,500.807 394.066,497.141 377.5,495.5C 375.417,494.027 373.084,492.86 370.5,492C 364.078,492.214 358.078,490.88 352.5,488C 344.745,486.749 337.079,485.082 329.5,483C 328.619,481.529 327.286,480.696 325.5,480.5C 314.09,479.731 303.09,477.231 292.5,473C 287.833,472.667 283.167,472.333 278.5,472C 277.774,470.603 276.607,469.769 275,469.5C 258.012,465.57 240.846,462.403 223.5,460C 208.936,457.109 194.602,453.442 180.5,449C 173.221,447.753 165.888,447.253 158.5,447.5C 158.158,446.662 157.492,446.328 156.5,446.5C 160.278,444.439 164.444,443.439 169,443.5C 177.246,444.438 185.412,445.771 193.5,447.5C 192.704,442.853 192.037,438.186 191.5,433.5 Z"/></g>
<g><path style="opacity:1" fill="#8a8a8a" d="M 208.5,435.5 C 271.896,445.104 335.229,454.271 398.5,463C 401.311,463.983 403.977,465.149 406.5,466.5C 340.727,457.699 275.061,448.199 209.5,438C 208.748,437.329 208.414,436.496 208.5,435.5 Z"/></g>
<g><path style="opacity:1" fill="#f2f2f2" d="M 176.5,725.5 C 177.167,725.833 177.833,726.167 178.5,726.5C 182.227,733.389 187.894,737.889 195.5,740C 197.17,742.169 199.336,743.669 202,744.5C 239.198,750.005 276.365,755.672 313.5,761.5C 340.743,766.596 368.076,771.263 395.5,775.5C 403.455,780.255 411.789,784.422 420.5,788C 430.782,789.536 441.115,789.87 451.5,789C 460.831,786.169 469.831,782.502 478.5,778C 493.416,774.869 508.416,772.202 523.5,770C 527.489,769.336 531.322,768.169 535,766.5C 582.197,759.213 629.363,751.713 676.5,744C 683.821,741.369 689.487,736.869 693.5,730.5C 694.222,730.082 694.722,729.416 695,728.5C 695.499,723.511 695.666,718.511 695.5,713.5C 695.223,709.822 693.556,706.988 690.5,705C 680.489,700.997 670.489,696.997 660.5,693C 648.318,685.805 640.651,675.305 637.5,661.5C 637.97,660.537 638.637,660.537 639.5,661.5C 642.5,664.833 645.5,668.167 648.5,671.5C 648.511,673.017 649.177,674.184 650.5,675C 654.696,678.698 659.029,682.198 663.5,685.5C 665.327,686.932 666.994,688.599 668.5,690.5C 672.806,693.149 677.473,694.983 682.5,696C 690.197,696.768 697.863,696.602 705.5,695.5C 711.72,692.705 718.053,690.205 724.5,688C 737.845,678.954 747.678,667.121 754,652.5C 758.527,637.729 759.527,622.729 757,607.5C 753.077,593.11 744.577,582.277 731.5,575C 724.227,573.313 716.894,573.147 709.5,574.5C 709.167,574.5 708.833,574.5 708.5,574.5C 707.391,573.71 706.058,573.21 704.5,573C 707.603,571.561 710.436,569.727 713,567.5C 716.252,562.666 719.252,557.666 722,552.5C 726.107,526.585 729.607,500.585 732.5,474.5C 732.147,469.353 731.147,464.353 729.5,459.5C 725.978,455.062 721.645,451.562 716.5,449C 708.875,447.858 701.208,447.358 693.5,447.5C 693.5,446.833 693.167,446.5 692.5,446.5C 703.633,442.082 714.3,443.248 724.5,450C 728.734,453.639 731.568,458.139 733,463.5C 733.667,470.833 733.667,478.167 733,485.5C 730.076,509.966 726.41,534.299 722,558.5C 720.138,563.194 717.305,567.194 713.5,570.5C 737.211,571.694 752.711,583.694 760,606.5C 766.175,638.98 756.675,665.813 731.5,687C 719.606,694.908 706.606,699.741 692.5,701.5C 700.046,708.213 702.546,716.547 700,726.5C 695.079,739.562 685.579,746.728 671.5,748C 606.995,758.072 542.662,769.072 478.5,781C 451.825,796.333 425.158,796.333 398.5,781C 394.23,779.746 389.896,778.746 385.5,778C 322.13,767.549 258.797,756.883 195.5,746C 185.125,742.796 178.792,735.963 176.5,725.5 Z"/></g>
<g><path style="opacity:1" fill="#959595" d="M 144.5,447.5 C 148.298,446.517 152.298,446.183 156.5,446.5C 157.492,446.328 158.158,446.662 158.5,447.5C 158.5,447.833 158.5,448.167 158.5,448.5C 153.93,447.559 149.263,447.226 144.5,447.5 Z"/></g>
<g><path style="opacity:1" fill="#5f5f5f" d="M 692.5,446.5 C 693.167,446.5 693.5,446.833 693.5,447.5C 696.544,448.517 699.544,449.851 702.5,451.5C 702.833,452.167 703.167,452.833 703.5,453.5C 703.5,454.833 704.167,455.5 705.5,455.5C 705.5,455.833 705.5,456.167 705.5,456.5C 705.5,458.167 705.5,459.833 705.5,461.5C 703.27,486.119 700.436,510.785 697,535.5C 696.646,542.934 693.812,549.1 688.5,554C 663.19,564.572 641.023,579.738 622,599.5C 602.699,628.722 604.532,656.555 627.5,683C 629.734,684.75 632.068,686.25 634.5,687.5C 637.475,690.323 640.808,692.656 644.5,694.5C 646.517,695.529 648.517,696.529 650.5,697.5C 654.994,699.413 659.661,700.746 664.5,701.5C 665.609,701.557 666.609,701.89 667.5,702.5C 669.662,703.128 671.328,704.461 672.5,706.5C 674.479,716.987 670.479,723.821 660.5,727C 593.585,738.696 526.585,750.029 459.5,761C 453.934,763.561 448.601,766.561 443.5,770C 437.105,772.344 430.439,773.511 423.5,773.5C 419.833,773.5 416.167,773.5 412.5,773.5C 410.883,772.962 409.216,772.629 407.5,772.5C 406.5,772.5 405.5,772.5 404.5,772.5C 401.211,770.842 397.877,769.175 394.5,767.5C 393.101,766.11 391.434,765.11 389.5,764.5C 389.047,763.542 388.381,762.708 387.5,762C 323.222,750.652 258.889,739.818 194.5,729.5C 192.708,729.634 191.042,729.301 189.5,728.5C 187.5,728.167 185.5,727.833 183.5,727.5C 181.784,727.371 180.117,727.038 178.5,726.5C 177.833,726.167 177.167,725.833 176.5,725.5C 172.035,721.576 169.368,716.576 168.5,710.5C 170.979,704.248 175.646,700.915 182.5,700.5C 187.393,699.444 192.06,697.777 196.5,695.5C 223.362,680.54 235.029,657.873 231.5,627.5C 230.384,619.806 227.717,612.806 223.5,606.5C 219.601,598.6 213.934,592.267 206.5,587.5C 193.44,575.449 178.774,565.782 162.5,558.5C 160.5,557.5 158.5,556.5 156.5,555.5C 155.167,555.167 153.833,554.833 152.5,554.5C 149.8,552.954 147.967,550.621 147,547.5C 143.248,519.285 139.415,491.118 135.5,463C 135.547,456.067 138.547,450.9 144.5,447.5C 149.263,447.226 153.93,447.559 158.5,448.5C 210.569,459.292 262.569,470.125 314.5,481C 335.323,486.692 356.323,491.525 377.5,495.5C 386.282,497.533 394.948,500.2 403.5,503.5C 409.966,512.167 418.299,514.833 428.5,511.5C 430.368,510.737 432.035,509.737 433.5,508.5C 433.5,508.167 433.5,507.833 433.5,507.5C 436.245,506.263 438.578,504.43 440.5,502C 442.717,500.725 445.051,499.725 447.5,499C 506.203,486.492 564.869,473.658 623.5,460.5C 641.964,457.034 660.298,453.034 678.5,448.5C 683.111,447.515 687.778,446.848 692.5,446.5 Z"/></g>
<g><path style="opacity:1" fill="#c8c8c8" d="M 245.5,450.5 C 288.887,455.817 332.22,461.65 375.5,468C 386.085,469.274 396.418,471.107 406.5,473.5C 352.624,466.351 298.958,458.684 245.5,450.5 Z"/></g>
<g><path style="opacity:1" fill="#b5b5b5" d="M 198.5,434.5 C 199.833,434.833 201.167,435.167 202.5,435.5C 202.409,440.241 204.742,442.408 209.5,442C 276.456,451.398 343.456,460.565 410.5,469.5C 413.784,471.117 416.451,473.45 418.5,476.5C 416.319,476.716 414.653,475.883 413.5,474C 411.19,473.503 408.857,473.337 406.5,473.5C 396.418,471.107 386.085,469.274 375.5,468C 332.22,461.65 288.887,455.817 245.5,450.5C 230.834,447.903 216.168,445.069 201.5,442C 199.945,439.745 198.945,437.245 198.5,434.5 Z"/></g>
<g><path style="opacity:1" fill="#a0a0a0" d="M 202.5,435.5 C 204.5,435.5 206.5,435.5 208.5,435.5C 208.414,436.496 208.748,437.329 209.5,438C 275.061,448.199 340.727,457.699 406.5,466.5C 408.23,467.026 409.564,468.026 410.5,469.5C 343.456,460.565 276.456,451.398 209.5,442C 204.742,442.408 202.409,440.241 202.5,435.5 Z"/></g>
<g><path style="opacity:1" fill="#f3f3f3" d="M 678.5,448.5 C 660.298,453.034 641.964,457.034 623.5,460.5C 620.696,459.362 617.696,459.195 614.5,460C 565.153,466.907 515.82,473.907 466.5,481C 457.567,482.633 449.9,486.633 443.5,493C 438.833,495 434.167,495 429.5,493C 423.105,486.635 415.438,482.635 406.5,481C 357.207,473.672 307.874,467.006 258.5,461C 310.235,472.614 361.902,484.614 413.5,497C 420.92,499.209 427.587,502.709 433.5,507.5C 433.5,507.833 433.5,508.167 433.5,508.5C 430.549,508.713 427.882,508.046 425.5,506.5C 421.119,502.976 416.119,500.476 410.5,499C 349.554,483.726 288.221,469.726 226.5,457C 223.624,456.562 220.957,455.562 218.5,454C 280.588,461.345 342.588,469.678 404.5,479C 410.679,480.06 416.679,481.727 422.5,484C 423.257,485.512 424.257,486.846 425.5,488C 429.162,489.163 432.828,490.33 436.5,491.5C 445.406,489.091 453.239,484.758 460,478.5C 502.514,472.951 545.014,467.117 587.5,461C 612.676,456.138 638.009,452.138 663.5,449C 665.852,448.76 667.852,447.927 669.5,446.5C 672.5,445.5 674.5,443.5 675.5,440.5C 677.68,420.54 673.513,401.873 663,384.5C 660.167,382.333 657.333,380.167 654.5,378C 652.366,375.114 650.032,372.447 647.5,370C 636.866,364.735 625.866,360.569 614.5,357.5C 614.719,356.325 614.386,355.325 613.5,354.5C 609.461,353.098 605.461,351.598 601.5,350C 582.292,345.448 563.292,340.114 544.5,334C 536.049,331.929 527.549,330.095 519,328.5C 515.759,328.634 512.925,329.634 510.5,331.5C 509.833,331.5 509.167,331.5 508.5,331.5C 506.585,331.784 504.919,331.451 503.5,330.5C 508.216,329.078 513.049,327.745 518,326.5C 555.475,333.66 591.975,344.16 627.5,358C 637.151,362.491 646.485,367.491 655.5,373C 666.555,381.936 673.388,393.436 676,407.5C 680.615,421 681.448,434.666 678.5,448.5 Z"/></g>
<g><path style="opacity:1" fill="#525356" d="M 511.5,452.5 C 504.434,454.412 497.1,455.412 489.5,455.5C 496.599,453.782 503.933,452.782 511.5,452.5 Z"/></g>
<g><path style="opacity:1" fill="#d5d5d5" d="M 192.5,433.5 C 194.565,433.517 196.565,433.85 198.5,434.5C 198.945,437.245 199.945,439.745 201.5,442C 216.168,445.069 230.834,447.903 245.5,450.5C 298.958,458.684 352.624,466.351 406.5,473.5C 408.857,473.337 411.19,473.503 413.5,474C 414.653,475.883 416.319,476.716 418.5,476.5C 421.984,476.749 424.651,478.415 426.5,481.5C 419.428,479.643 412.428,477.476 405.5,475C 340.145,465.665 274.812,456.665 209.5,448C 202.014,446.842 197.514,442.675 196,435.5C 194.698,434.915 193.531,434.249 192.5,433.5 Z"/></g>
<g><path style="opacity:1" fill="#e9e9e9" d="M 693.5,447.5 C 701.208,447.358 708.875,447.858 716.5,449C 721.645,451.562 725.978,455.062 729.5,459.5C 731.147,464.353 732.147,469.353 732.5,474.5C 729.607,500.585 726.107,526.585 722,552.5C 719.252,557.666 716.252,562.666 713,567.5C 710.436,569.727 707.603,571.561 704.5,573C 706.058,573.21 707.391,573.71 708.5,574.5C 704.016,574.426 699.683,575.093 695.5,576.5C 694.761,576.631 694.094,576.464 693.5,576C 694.77,575.1 695.77,573.934 696.5,572.5C 707.377,569.736 715.044,563.236 719.5,553C 721.412,531.005 723.912,509.172 727,487.5C 727.945,478.065 727.611,468.732 726,459.5C 719.259,453.891 711.425,451.225 702.5,451.5C 699.544,449.851 696.544,448.517 693.5,447.5 Z"/></g>
<g><path style="opacity:1" fill="#fcfcfc" d="M 623.5,460.5 C 564.869,473.658 506.203,486.492 447.5,499C 445.051,499.725 442.717,500.725 440.5,502C 438.578,504.43 436.245,506.263 433.5,507.5C 427.587,502.709 420.92,499.209 413.5,497C 361.902,484.614 310.235,472.614 258.5,461C 307.874,467.006 357.207,473.672 406.5,481C 415.438,482.635 423.105,486.635 429.5,493C 434.167,495 438.833,495 443.5,493C 449.9,486.633 457.567,482.633 466.5,481C 515.82,473.907 565.153,466.907 614.5,460C 617.696,459.195 620.696,459.362 623.5,460.5 Z"/></g>
<g><path style="opacity:1" fill="#8e8e8e" d="M 705.5,456.5 C 710.676,457.056 715.176,459.056 719,462.5C 719.667,469.5 719.667,476.5 719,483.5C 716.28,505.541 713.28,527.541 710,549.5C 708.901,552.864 707.401,556.03 705.5,559C 694.759,563.537 684.426,568.871 674.5,575C 673.279,577.034 671.945,578.867 670.5,580.5C 665.797,582.691 661.464,585.524 657.5,589C 631.988,603.18 620.488,625.014 623,654.5C 625.247,670.671 632.413,684.004 644.5,694.5C 640.808,692.656 637.475,690.323 634.5,687.5C 612.254,651.215 616.92,618.715 648.5,590C 664.267,576.923 681.6,566.256 700.5,558C 703,556.833 704.833,555 706,552.5C 710.573,526.991 714.073,501.324 716.5,475.5C 718.435,466.186 714.769,461.52 705.5,461.5C 705.5,459.833 705.5,458.167 705.5,456.5 Z"/></g>
<g><path style="opacity:1" fill="#858585" d="M 705.5,461.5 C 714.769,461.52 718.435,466.186 716.5,475.5C 714.073,501.324 710.573,526.991 706,552.5C 704.833,555 703,556.833 700.5,558C 681.6,566.256 664.267,576.923 648.5,590C 616.92,618.715 612.254,651.215 634.5,687.5C 632.068,686.25 629.734,684.75 627.5,683C 604.532,656.555 602.699,628.722 622,599.5C 641.023,579.738 663.19,564.572 688.5,554C 693.812,549.1 696.646,542.934 697,535.5C 700.436,510.785 703.27,486.119 705.5,461.5 Z"/></g>
<g><path style="opacity:1" fill="#bcbcbc" d="M 643.5,375.5 C 646.223,376.352 648.89,377.519 651.5,379C 654.669,383.335 658.336,387.168 662.5,390.5C 663.933,397.639 666.1,404.639 669,411.5C 670.296,418.979 671.462,426.479 672.5,434C 672.715,438.716 670.715,442.049 666.5,444C 598.975,454.566 531.308,464.233 463.5,473C 461.122,473.511 458.788,474.178 456.5,475C 451.204,478.312 446.204,481.978 441.5,486C 437.269,486.919 433.269,486.419 429.5,484.5C 427.5,484.5 426.5,483.5 426.5,481.5C 424.651,478.415 421.984,476.749 418.5,476.5C 419.167,476.5 419.833,476.5 420.5,476.5C 421.695,476.322 422.862,475.989 424,475.5C 426.147,477.478 428.647,478.811 431.5,479.5C 433.407,482.332 436.073,483.166 439.5,482C 447.492,476.842 456.158,473.008 465.5,470.5C 499.821,465.585 534.154,460.752 568.5,456C 573.604,454.75 578.604,453.584 583.5,452.5C 590.948,452.055 598.282,451.055 605.5,449.5C 623.857,447.235 642.19,444.735 660.5,442C 663.696,441.604 666.53,440.438 669,438.5C 670.457,434.259 670.791,429.926 670,425.5C 667.659,405.14 658.826,388.474 643.5,375.5 Z"/></g>
<g><path style="opacity:1" fill="#a8a8a8" d="M 583.5,452.5 C 578.604,453.584 573.604,454.75 568.5,456C 534.154,460.752 499.821,465.585 465.5,470.5C 456.158,473.008 447.492,476.842 439.5,482C 436.073,483.166 433.407,482.332 431.5,479.5C 433.819,480.167 436.153,480.334 438.5,480C 444.391,475.887 450.724,472.554 457.5,470C 499.593,463.99 541.593,458.157 583.5,452.5 Z"/></g>
<g><path style="opacity:1" fill="#d5d5d5" d="M 662.5,390.5 C 671.772,405.575 676.105,422.241 675.5,440.5C 674.5,443.5 672.5,445.5 669.5,446.5C 602.432,457.176 535.099,466.676 467.5,475C 460.698,476.155 454.365,478.488 448.5,482C 444.333,488.229 438.667,490.062 431.5,487.5C 430.388,486.735 429.721,485.735 429.5,484.5C 433.269,486.419 437.269,486.919 441.5,486C 446.204,481.978 451.204,478.312 456.5,475C 458.788,474.178 461.122,473.511 463.5,473C 531.308,464.233 598.975,454.566 666.5,444C 670.715,442.049 672.715,438.716 672.5,434C 671.462,426.479 670.296,418.979 669,411.5C 666.1,404.639 663.933,397.639 662.5,390.5 Z"/></g>
<g><path style="opacity:1" fill="#d6d6d6" d="M 158.5,448.5 C 158.5,448.167 158.5,447.833 158.5,447.5C 165.888,447.253 173.221,447.753 180.5,449C 194.602,453.442 208.936,457.109 223.5,460C 240.846,462.403 258.012,465.57 275,469.5C 276.607,469.769 277.774,470.603 278.5,472C 283.167,472.333 287.833,472.667 292.5,473C 303.09,477.231 314.09,479.731 325.5,480.5C 327.286,480.696 328.619,481.529 329.5,483C 337.079,485.082 344.745,486.749 352.5,488C 358.078,490.88 364.078,492.214 370.5,492C 373.084,492.86 375.417,494.027 377.5,495.5C 356.323,491.525 335.323,486.692 314.5,481C 262.569,470.125 210.569,459.292 158.5,448.5 Z"/></g>
<g><path style="opacity:1" fill="#0fa0e4" d="M 637.5,548.5 C 631.545,549.073 625.878,550.407 620.5,552.5C 573.755,563.188 527.088,573.855 480.5,584.5C 475.523,585.327 470.523,585.994 465.5,586.5C 462.547,585.213 460.214,583.213 458.5,580.5C 458.26,575.88 457.26,571.547 455.5,567.5C 453.169,556.175 450.836,544.842 448.5,533.5C 447.931,528.911 449.265,525.078 452.5,522C 460.468,519.179 468.468,516.679 476.5,514.5C 480.547,512.74 484.88,511.74 489.5,511.5C 496.789,510.593 503.789,508.927 510.5,506.5C 516.192,505.628 521.859,504.628 527.5,503.5C 535.081,501.856 542.747,500.689 550.5,500C 559.837,496.838 569.17,494.004 578.5,491.5C 590.147,489.707 601.481,487.041 612.5,483.5C 628.567,481.563 644.234,478.23 659.5,473.5C 666.043,469.958 671.543,471.292 676,477.5C 680.157,495.787 683.824,514.12 687,532.5C 685.437,535.728 682.937,537.895 679.5,539C 665.556,542.488 651.556,545.655 637.5,548.5 Z"/></g>
<g><path style="opacity:1" fill="#177baa" d="M 659.5,473.5 C 644.234,478.23 628.567,481.563 612.5,483.5C 628.009,480.044 643.676,476.711 659.5,473.5 Z"/></g>
<g><path style="opacity:1" fill="#1d6e93" d="M 612.5,483.5 C 601.481,487.041 590.147,489.707 578.5,491.5C 589.578,488.214 600.911,485.547 612.5,483.5 Z"/></g>
<g><path style="opacity:1" fill="#f6fafd" d="M 663.5,486.5 C 664.822,486.33 665.989,486.663 667,487.5C 670.295,499.01 672.795,510.677 674.5,522.5C 672.278,522.822 670.444,522.155 669,520.5C 665.667,515.167 662.333,509.833 659,504.5C 659.85,510.896 661.35,517.229 663.5,523.5C 661.674,526.081 659.841,526.081 658,523.5C 655.689,512.779 653.189,502.112 650.5,491.5C 651.786,489.429 653.453,489.096 655.5,490.5C 658.751,496.004 662.251,501.338 666,506.5C 665.566,500.584 664.399,494.75 662.5,489C 662.743,488.098 663.077,487.265 663.5,486.5 Z"/></g>
<g><path style="opacity:1" fill="#f3f9fd" d="M 642.5,491.5 C 643.833,491.5 645.167,491.5 646.5,491.5C 648.841,503.516 651.175,515.516 653.5,527.5C 652.167,527.5 650.833,527.5 649.5,527.5C 647.231,516.256 644.564,505.09 641.5,494C 641.743,493.098 642.077,492.265 642.5,491.5 Z"/></g>
<g><path style="opacity:1" fill="#f5fafd" d="M 620.5,496.5 C 627.694,496.358 631.027,499.691 630.5,506.5C 629.833,506.833 629.167,507.167 628.5,507.5C 627.444,505.354 625.944,503.688 624,502.5C 623.228,502.645 622.561,502.978 622,503.5C 621.333,505.167 621.333,506.833 622,508.5C 626.192,510.799 630.192,513.465 634,516.5C 636.699,521.041 637.032,525.708 635,530.5C 629.234,535.013 624.567,534.013 621,527.5C 620.506,525.866 620.34,524.199 620.5,522.5C 621.978,522.238 623.311,522.571 624.5,523.5C 627.133,528.695 629.467,528.695 631.5,523.5C 631.124,521.617 630.124,520.117 628.5,519C 615.827,514.826 613.16,507.326 620.5,496.5 Z"/></g>
<g><path style="opacity:1" fill="#0980b4" d="M 578.5,491.5 C 569.17,494.004 559.837,496.838 550.5,500C 542.747,500.689 535.081,501.856 527.5,503.5C 544.274,499.008 561.274,495.008 578.5,491.5 Z"/></g>
<g><path style="opacity:1" fill="#f5fafd" d="M 606.5,500.5 C 608.5,500.5 610.5,500.5 612.5,500.5C 612.5,502.5 612.5,504.5 612.5,506.5C 609.833,506.833 607.167,507.167 604.5,507.5C 605.092,510.127 605.425,512.794 605.5,515.5C 608.482,515.037 611.482,514.704 614.5,514.5C 614.5,516.5 614.5,518.5 614.5,520.5C 612.139,520.674 609.806,521.007 607.5,521.5C 608.167,524.5 608.833,527.5 609.5,530.5C 612.86,530.384 616.193,530.051 619.5,529.5C 619.5,531.5 619.5,533.5 619.5,535.5C 615.409,536.085 611.409,537.085 607.5,538.5C 604.274,527.43 601.274,516.264 598.5,505C 598.833,504.167 599.167,503.333 599.5,502.5C 601.982,501.933 604.316,501.266 606.5,500.5 Z"/></g>
<g><path style="opacity:1" fill="#f5fafd" d="M 592.5,503.5 C 596.143,504.119 597.143,506.119 595.5,509.5C 593.929,510.309 592.262,510.643 590.5,510.5C 593.141,520.401 595.475,530.401 597.5,540.5C 595.799,540.966 594.299,540.966 593,540.5C 590.832,531.16 588.665,521.827 586.5,512.5C 584.533,512.261 582.699,512.594 581,513.5C 579.331,511.647 579.165,509.647 580.5,507.5C 584.671,506.332 588.671,504.998 592.5,503.5 Z"/></g>
<g><path style="opacity:1" fill="#d7d7d7" d="M 377.5,495.5 C 394.066,497.141 410.066,500.807 425.5,506.5C 427.882,508.046 430.549,508.713 433.5,508.5C 432.035,509.737 430.368,510.737 428.5,511.5C 423.31,511.074 418.643,509.241 414.5,506C 410.93,504.69 407.263,503.857 403.5,503.5C 394.948,500.2 386.282,497.533 377.5,495.5 Z"/></g>
<g><path style="opacity:1" fill="#276a88" d="M 510.5,506.5 C 503.789,508.927 496.789,510.593 489.5,511.5C 496.211,509.073 503.211,507.407 510.5,506.5 Z"/></g>
<g><path style="opacity:1" fill="#f4f9fd" d="M 567.5,509.5 C 573.677,509.487 577.844,512.487 580,518.5C 582.984,526.037 583.651,533.704 582,541.5C 577.842,546.778 573.509,546.778 569,541.5C 564.119,532.76 562.452,523.426 564,513.5C 565.032,511.973 566.199,510.64 567.5,509.5 Z"/></g>
<g><path style="opacity:1" fill="#b0b0b0" d="M 403.5,503.5 C 407.263,503.857 410.93,504.69 414.5,506C 418.643,509.241 423.31,511.074 428.5,511.5C 418.299,514.833 409.966,512.167 403.5,503.5 Z"/></g>
<g><path style="opacity:1" fill="#f6fafd" d="M 552.5,513.5 C 554.167,513.5 555.833,513.5 557.5,513.5C 559.727,525.196 562.06,536.863 564.5,548.5C 562.799,548.966 561.299,548.966 560,548.5C 556.333,542.5 552.667,536.5 549,530.5C 550.626,537.357 551.792,544.357 552.5,551.5C 551.167,551.5 549.833,551.5 548.5,551.5C 546.231,540.256 543.564,529.09 540.5,518C 541.736,515.752 543.403,515.252 545.5,516.5C 549,522.167 552.5,527.833 556,533.5C 554.964,526.866 553.797,520.199 552.5,513.5 Z"/></g>
<g><path style="opacity:1" fill="#1c7199" d="M 476.5,514.5 C 468.468,516.679 460.468,519.179 452.5,522C 449.265,525.078 447.931,528.911 448.5,533.5C 446.069,527.363 447.736,522.529 453.5,519C 461.15,517.337 468.817,515.837 476.5,514.5 Z"/></g>
<g><path style="opacity:1" fill="#29a6e9" d="M 569.5,515.5 C 572.713,516.164 574.879,518.164 576,521.5C 578.272,527.262 578.772,533.095 577.5,539C 573.774,539.961 571.608,538.461 571,534.5C 568.639,528.24 568.139,521.906 569.5,515.5 Z"/></g>
<g><path style="opacity:1" fill="#181f26" d="M 527.5,519.5 C 529.167,519.5 530.833,519.5 532.5,519.5C 533.54,531.505 533.54,543.505 532.5,555.5C 531.833,555.833 531.167,556.167 530.5,556.5C 524.91,545.653 519.577,534.653 514.5,523.5C 516.167,522.167 517.833,522.167 519.5,523.5C 522.333,529.833 525.167,536.167 528,542.5C 528.767,534.785 528.6,527.118 527.5,519.5 Z"/></g>
<g><path style="opacity:1" fill="#f0f7fd" d="M 640.5,522.5 C 641.822,522.33 642.989,522.663 644,523.5C 644.495,525.473 644.662,527.473 644.5,529.5C 639.824,529.153 638.491,526.82 640.5,522.5 Z"/></g>
<g><path style="opacity:1" fill="#171d23" d="M 502.5,525.5 C 509.131,524.296 513.298,526.962 515,533.5C 515.667,536.833 515.667,540.167 515,543.5C 513.688,546.581 511.355,548.248 508,548.5C 507.86,552.895 508.36,557.229 509.5,561.5C 507.549,561.773 506.049,561.107 505,559.5C 502.337,548.517 499.837,537.517 497.5,526.5C 499.415,526.784 501.081,526.451 502.5,525.5 Z"/></g>
<g><path style="opacity:1" fill="#171d23" d="M 483.5,529.5 C 489.742,529.398 493.742,532.398 495.5,538.5C 494.672,539.415 493.672,540.081 492.5,540.5C 491.059,539.135 489.726,537.635 488.5,536C 486.633,535.289 485.133,535.789 484,537.5C 483.614,544.959 485.281,551.959 489,558.5C 490.726,559.576 492.559,559.743 494.5,559C 495.022,558.439 495.355,557.772 495.5,557C 494.767,555.234 494.433,553.401 494.5,551.5C 490.488,552.113 488.488,550.446 488.5,546.5C 491.482,546.037 494.482,545.704 497.5,545.5C 497.923,549.696 498.59,553.863 499.5,558C 499.741,562.926 497.407,565.426 492.5,565.5C 489.889,565.444 487.722,564.444 486,562.5C 481.185,553.757 479.185,544.423 480,534.5C 480.997,532.677 482.164,531.01 483.5,529.5 Z"/></g>
<g><path style="opacity:1" fill="#0495d5" d="M 503.5,531.5 C 508.39,530.887 511.056,533.054 511.5,538C 510.914,542.183 508.747,543.35 505,541.5C 503.957,538.243 503.457,534.91 503.5,531.5 Z"/></g>
<g><path style="opacity:1" fill="#171e23" d="M 465.5,534.5 C 473.218,535.406 476.885,539.906 476.5,548C 475.907,550.509 475.741,553.009 476,555.5C 477.787,559.577 479.954,563.41 482.5,567C 480.973,568.632 479.307,568.799 477.5,567.5C 475.747,564.995 474.247,562.329 473,559.5C 471.89,557.963 470.39,557.297 468.5,557.5C 469.269,561.743 470.269,565.909 471.5,570C 470.234,570.309 469.067,570.809 468,571.5C 464.235,559.769 461.401,547.769 459.5,535.5C 461.735,535.795 463.735,535.461 465.5,534.5 Z"/></g>
<g><path style="opacity:1" fill="#d1d1d1" d="M 702.5,451.5 C 711.425,451.225 719.259,453.891 726,459.5C 727.611,468.732 727.945,478.065 727,487.5C 723.912,509.172 721.412,531.005 719.5,553C 715.044,563.236 707.377,569.736 696.5,572.5C 695.77,573.934 694.77,575.1 693.5,576C 694.094,576.464 694.761,576.631 695.5,576.5C 674.594,585.638 655.928,598.305 639.5,614.5C 642.299,609.098 645.965,604.265 650.5,600C 667.72,585.221 686.72,573.221 707.5,564C 708.641,561.692 710.308,559.859 712.5,558.5C 713.764,555.875 714.931,553.208 716,550.5C 718.667,529.833 721.333,509.166 724,488.5C 724.667,479.833 724.667,471.167 724,462.5C 722.5,459.667 720.333,457.5 717.5,456C 712.916,454.637 708.249,453.803 703.5,453.5C 703.167,452.833 702.833,452.167 702.5,451.5 Z"/></g>
<g><path style="opacity:1" fill="#0495d6" d="M 464.5,540.5 C 469.378,539.874 472.045,542.041 472.5,547C 471.779,550.195 469.779,551.695 466.5,551.5C 466.249,547.751 465.583,544.085 464.5,540.5 Z"/></g>
<g><path style="opacity:1" fill="#a3a3a3" d="M 705.5,456.5 C 705.5,456.167 705.5,455.833 705.5,455.5C 713.008,455.383 718.841,458.383 723,464.5C 723.416,474.515 723.083,484.515 722,494.5C 718.606,513.312 715.939,532.312 714,551.5C 713.002,555.493 710.835,558.659 707.5,561C 694.523,566.486 682.189,572.986 670.5,580.5C 671.945,578.867 673.279,577.034 674.5,575C 684.426,568.871 694.759,563.537 705.5,559C 707.401,556.03 708.901,552.864 710,549.5C 713.28,527.541 716.28,505.541 719,483.5C 719.667,476.5 719.667,469.5 719,462.5C 715.176,459.056 710.676,457.056 705.5,456.5 Z"/></g>
<g><path style="opacity:1" fill="#387997" d="M 637.5,548.5 C 632.122,550.593 626.455,551.927 620.5,552.5C 625.878,550.407 631.545,549.073 637.5,548.5 Z"/></g>
<g><path style="opacity:1" fill="#f4f4f4" d="M 152.5,554.5 C 153.833,554.833 155.167,555.167 156.5,555.5C 157.331,560.833 159.997,564.999 164.5,568C 185.636,578.881 205.303,591.714 223.5,606.5C 227.717,612.806 230.384,619.806 231.5,627.5C 231.762,628.978 231.429,630.311 230.5,631.5C 227.83,624.461 223.497,618.795 217.5,614.5C 216.474,611.628 214.808,609.128 212.5,607C 206.324,601.168 199.324,596.502 191.5,593C 190.5,590.667 188.833,589 186.5,588C 177.983,583.91 169.316,580.076 160.5,576.5C 155.88,575.507 151.214,575.173 146.5,575.5C 144.833,575.5 143.167,575.5 141.5,575.5C 139.901,575.768 138.568,575.434 137.5,574.5C 142.004,572.875 146.671,571.875 151.5,571.5C 155.498,572.192 159.498,572.359 163.5,572C 157.673,567.51 154.006,561.676 152.5,554.5 Z"/></g>
<g><path style="opacity:1" fill="#38687e" d="M 455.5,567.5 C 457.26,571.547 458.26,575.88 458.5,580.5C 456.74,576.453 455.74,572.12 455.5,567.5 Z"/></g>
<g><path style="opacity:1" fill="#e2e2e2" d="M 146.5,575.5 C 151.214,575.173 155.88,575.507 160.5,576.5C 169.316,580.076 177.983,583.91 186.5,588C 188.833,589 190.5,590.667 191.5,593C 199.324,596.502 206.324,601.168 212.5,607C 214.808,609.128 216.474,611.628 217.5,614.5C 212.543,611.876 208.543,608.209 205.5,603.5C 203.677,602.253 201.677,601.586 199.5,601.5C 191.578,595.195 183.245,589.361 174.5,584C 165.23,580.181 155.896,577.348 146.5,575.5 Z"/></g>
<g><path style="opacity:1" fill="#c3c3c3" d="M 162.5,558.5 C 178.774,565.782 193.44,575.449 206.5,587.5C 200.918,585.025 195.918,581.525 191.5,577C 186.36,575.554 181.694,573.221 177.5,570C 174.711,569.759 172.044,569.092 169.5,568C 168.195,565.852 166.362,564.352 164,563.5C 163.392,561.846 162.892,560.179 162.5,558.5 Z"/></g>
<g><path style="opacity:1" fill="#456f82" d="M 480.5,584.5 C 475.664,586.967 470.664,587.634 465.5,586.5C 470.523,585.994 475.523,585.327 480.5,584.5 Z"/></g>
<g><path style="opacity:1" fill="#171b20" d="M 137.5,574.5 C 138.568,575.434 139.901,575.768 141.5,575.5C 146.572,578.368 151.905,580.701 157.5,582.5C 168.116,589.151 178.449,596.318 188.5,604C 192.37,607.702 196.037,611.536 199.5,615.5C 210.225,634.156 208.558,651.656 194.5,668C 184.158,676.757 172.158,680.924 158.5,680.5C 155.017,680.309 151.684,679.643 148.5,678.5C 145.72,677.805 143.053,676.805 140.5,675.5C 138.78,674.692 137.113,673.692 135.5,672.5C 130.539,668.874 125.872,664.874 121.5,660.5C 115.266,652.808 110.933,644.141 108.5,634.5C 107.955,629.951 106.955,625.618 105.5,621.5C 103.374,601.688 110.708,586.521 127.5,576C 130.688,574.684 134.022,574.184 137.5,574.5 Z"/></g>
<g><path style="opacity:1" fill="#848484" d="M 727.5,591.5 C 733.396,594.227 737.896,598.56 741,604.5C 749.138,629.449 743.972,651.282 725.5,670C 712.901,681.215 698.567,684.715 682.5,680.5C 710.267,674.063 726.934,656.729 732.5,628.5C 733.222,628.082 733.722,627.416 734,626.5C 734.821,619.654 734.654,612.987 733.5,606.5C 731.899,601.368 729.899,596.368 727.5,591.5 Z"/></g>
<g><path style="opacity:1" fill="#e5e5e5" d="M 156.5,555.5 C 158.5,556.5 160.5,557.5 162.5,558.5C 162.892,560.179 163.392,561.846 164,563.5C 166.362,564.352 168.195,565.852 169.5,568C 172.044,569.092 174.711,569.759 177.5,570C 181.694,573.221 186.36,575.554 191.5,577C 195.918,581.525 200.918,585.025 206.5,587.5C 213.934,592.267 219.601,598.6 223.5,606.5C 205.303,591.714 185.636,578.881 164.5,568C 159.997,564.999 157.331,560.833 156.5,555.5 Z"/></g>
<g><path style="opacity:1" fill="#171b20" d="M 708.5,574.5 C 708.833,574.5 709.167,574.5 709.5,574.5C 710.899,575.89 712.566,576.89 714.5,577.5C 715.436,578.974 716.77,579.974 718.5,580.5C 719.5,582.167 720.833,583.5 722.5,584.5C 724.555,586.555 726.221,588.888 727.5,591.5C 729.899,596.368 731.899,601.368 733.5,606.5C 733.582,613.858 733.248,621.191 732.5,628.5C 726.934,656.729 710.267,674.063 682.5,680.5C 679.5,680.5 676.5,680.5 673.5,680.5C 669.669,680.584 666.002,679.917 662.5,678.5C 657.836,676.172 653.17,673.838 648.5,671.5C 645.5,668.167 642.5,664.833 639.5,661.5C 638.167,658.833 636.833,656.167 635.5,653.5C 632.764,646.52 631.764,639.187 632.5,631.5C 634.085,625.454 636.418,619.787 639.5,614.5C 655.928,598.305 674.594,585.638 695.5,576.5C 699.683,575.093 704.016,574.426 708.5,574.5 Z"/></g>
<g><path style="opacity:1" fill="#929292" d="M 722.5,584.5 C 726.607,584.925 730.274,586.425 733.5,589C 738.173,594.056 742.673,599.222 747,604.5C 749.229,615.407 749.895,626.407 749,637.5C 747.18,642.454 745.68,647.454 744.5,652.5C 741.107,658.172 737.44,663.672 733.5,669C 718.764,682.686 701.43,687.686 681.5,684C 678.626,683.058 675.96,681.891 673.5,680.5C 676.5,680.5 679.5,680.5 682.5,680.5C 698.567,684.715 712.901,681.215 725.5,670C 743.972,651.282 749.138,629.449 741,604.5C 737.896,598.56 733.396,594.227 727.5,591.5C 726.221,588.888 724.555,586.555 722.5,584.5 Z"/></g>
<g><path style="opacity:1" fill="#c3c3c3" d="M 141.5,575.5 C 143.167,575.5 144.833,575.5 146.5,575.5C 155.896,577.348 165.23,580.181 174.5,584C 183.245,589.361 191.578,595.195 199.5,601.5C 205.747,608.101 212.247,614.768 219,621.5C 226.03,632.476 228.364,644.476 226,657.5C 224.89,661.068 223.057,664.068 220.5,666.5C 227.65,651.543 226.816,636.877 218,622.5C 212.934,616.93 207.434,611.93 201.5,607.5C 197.102,606.603 193.769,604.27 191.5,600.5C 186.086,596.827 180.753,593.16 175.5,589.5C 169.466,587.102 163.466,584.768 157.5,582.5C 151.905,580.701 146.572,578.368 141.5,575.5 Z"/></g>
<g><path style="opacity:1" fill="#b5b5b5" d="M 703.5,453.5 C 708.249,453.803 712.916,454.637 717.5,456C 720.333,457.5 722.5,459.667 724,462.5C 724.667,471.167 724.667,479.833 724,488.5C 721.333,509.166 718.667,529.833 716,550.5C 714.931,553.208 713.764,555.875 712.5,558.5C 710.308,559.859 708.641,561.692 707.5,564C 686.72,573.221 667.72,585.221 650.5,600C 645.965,604.265 642.299,609.098 639.5,614.5C 636.418,619.787 634.085,625.454 632.5,631.5C 630.883,632.589 630.05,634.256 630,636.5C 629.333,644.167 629.333,651.833 630,659.5C 632.689,665.883 635.689,672.216 639,678.5C 639.708,679.381 640.542,680.047 641.5,680.5C 644.541,685.873 648.874,689.873 654.5,692.5C 655.666,695.074 657.333,697.241 659.5,699C 661.653,699.099 663.319,699.933 664.5,701.5C 659.661,700.746 654.994,699.413 650.5,697.5C 648.847,690.991 645.013,685.991 639,682.5C 625.287,662.861 622.954,641.861 632,619.5C 637.659,610.691 643.825,602.358 650.5,594.5C 657.973,591.034 664.639,586.367 670.5,580.5C 682.189,572.986 694.523,566.486 707.5,561C 710.835,558.659 713.002,555.493 714,551.5C 715.939,532.312 718.606,513.312 722,494.5C 723.083,484.515 723.416,474.515 723,464.5C 718.841,458.383 713.008,455.383 705.5,455.5C 704.167,455.5 703.5,454.833 703.5,453.5 Z"/></g>
<g><path style="opacity:1" fill="#9a9a9a" d="M 670.5,580.5 C 664.639,586.367 657.973,591.034 650.5,594.5C 643.825,602.358 637.659,610.691 632,619.5C 622.954,641.861 625.287,662.861 639,682.5C 645.013,685.991 648.847,690.991 650.5,697.5C 648.517,696.529 646.517,695.529 644.5,694.5C 632.413,684.004 625.247,670.671 623,654.5C 620.488,625.014 631.988,603.18 657.5,589C 661.464,585.524 665.797,582.691 670.5,580.5 Z"/></g>
<g><path style="opacity:1" fill="#aaaaaa" d="M 718.5,580.5 C 723.747,580.713 728.747,582.046 733.5,584.5C 733.863,585.183 734.196,585.85 734.5,586.5C 739.044,591.21 743.377,596.21 747.5,601.5C 749.702,605.939 751.202,610.606 752,615.5C 752.667,622.833 752.667,630.167 752,637.5C 749.777,642.688 747.277,647.688 744.5,652.5C 745.68,647.454 747.18,642.454 749,637.5C 749.895,626.407 749.229,615.407 747,604.5C 742.673,599.222 738.173,594.056 733.5,589C 730.274,586.425 726.607,584.925 722.5,584.5C 720.833,583.5 719.5,582.167 718.5,580.5 Z"/></g>
<g><path style="opacity:1" fill="#929292" d="M 157.5,582.5 C 163.466,584.768 169.466,587.102 175.5,589.5C 180.753,593.16 186.086,596.827 191.5,600.5C 193.769,604.27 197.102,606.603 201.5,607.5C 207.787,614.468 213.787,621.801 219.5,629.5C 226.54,655.233 218.207,674.067 194.5,686C 186.875,687.372 179.208,687.706 171.5,687C 166.449,684.596 161.116,683.096 155.5,682.5C 152.996,681.416 150.663,680.083 148.5,678.5C 151.684,679.643 155.017,680.309 158.5,680.5C 169.023,682.507 179.689,682.674 190.5,681C 212.711,673.082 221.211,657.582 216,634.5C 212.42,626.425 206.92,620.092 199.5,615.5C 196.037,611.536 192.37,607.702 188.5,604C 178.449,596.318 168.116,589.151 157.5,582.5 Z"/></g>
<g><path style="opacity:1" fill="#525455" d="M 733.5,606.5 C 734.654,612.987 734.821,619.654 734,626.5C 733.722,627.416 733.222,628.082 732.5,628.5C 733.248,621.191 733.582,613.858 733.5,606.5 Z"/></g>
<g><path style="opacity:1" fill="#838383" d="M 199.5,615.5 C 206.92,620.092 212.42,626.425 216,634.5C 221.211,657.582 212.711,673.082 190.5,681C 179.689,682.674 169.023,682.507 158.5,680.5C 172.158,680.924 184.158,676.757 194.5,668C 208.558,651.656 210.225,634.156 199.5,615.5 Z"/></g>
<g><path style="opacity:1" fill="#595b5f" d="M 105.5,621.5 C 106.955,625.618 107.955,629.951 108.5,634.5C 107.883,634.389 107.383,634.056 107,633.5C 106.172,629.534 105.672,625.534 105.5,621.5 Z"/></g>
<g><path style="opacity:1" fill="#aaaaaa" d="M 201.5,607.5 C 207.434,611.93 212.934,616.93 218,622.5C 226.816,636.877 227.65,651.543 220.5,666.5C 220.5,666.833 220.5,667.167 220.5,667.5C 208.529,684.147 192.196,691.647 171.5,690C 166.236,689.101 161.236,687.435 156.5,685C 155.748,684.329 155.414,683.496 155.5,682.5C 161.116,683.096 166.449,684.596 171.5,687C 179.208,687.706 186.875,687.372 194.5,686C 218.207,674.067 226.54,655.233 219.5,629.5C 213.787,621.801 207.787,614.468 201.5,607.5 Z"/></g>
<g><path style="opacity:1" fill="#c8c8c8" d="M 632.5,631.5 C 631.764,639.187 632.764,646.52 635.5,653.5C 634.034,652.653 633.2,651.32 633,649.5C 632.333,653.167 632.333,656.833 633,660.5C 634.453,663.298 635.453,666.298 636,669.5C 636.943,672.4 638.61,674.733 641,676.5C 641.49,677.793 641.657,679.127 641.5,680.5C 640.542,680.047 639.708,679.381 639,678.5C 635.689,672.216 632.689,665.883 630,659.5C 629.333,651.833 629.333,644.167 630,636.5C 630.05,634.256 630.883,632.589 632.5,631.5 Z"/></g>
<g><path style="opacity:1" fill="#cdcdcd" d="M 714.5,577.5 C 720.245,577.211 725.912,577.711 731.5,579C 740.847,585.006 748.014,592.839 753,602.5C 758.397,620.292 757.397,637.625 750,654.5C 747.073,658.483 744.24,662.483 741.5,666.5C 745.597,657.302 749.43,647.969 753,638.5C 755.796,622.735 753.13,608.069 745,594.5C 742.172,590.825 738.672,588.158 734.5,586.5C 734.196,585.85 733.863,585.183 733.5,584.5C 728.747,582.046 723.747,580.713 718.5,580.5C 716.77,579.974 715.436,578.974 714.5,577.5 Z"/></g>
<g><path style="opacity:1" fill="#dfdfdf" d="M 635.5,653.5 C 636.833,656.167 638.167,658.833 639.5,661.5C 638.637,660.537 637.97,660.537 637.5,661.5C 640.651,675.305 648.318,685.805 660.5,693C 670.489,696.997 680.489,700.997 690.5,705C 693.556,706.988 695.223,709.822 695.5,713.5C 692.825,711.457 690.492,708.957 688.5,706C 680.01,703.922 671.677,701.422 663.5,698.5C 656.076,692.676 648.743,686.676 641.5,680.5C 641.657,679.127 641.49,677.793 641,676.5C 638.61,674.733 636.943,672.4 636,669.5C 635.453,666.298 634.453,663.298 633,660.5C 632.333,656.833 632.333,653.167 633,649.5C 633.2,651.32 634.034,652.653 635.5,653.5 Z"/></g>
<g><path style="opacity:1" fill="#eeeeee" d="M 121.5,660.5 C 125.872,664.874 130.539,668.874 135.5,672.5C 137.591,675.771 139.924,678.937 142.5,682C 149.177,685.338 155.844,688.672 162.5,692C 165.101,692.92 167.768,693.587 170.5,694C 179.343,694.17 188.01,694.67 196.5,695.5C 192.06,697.777 187.393,699.444 182.5,700.5C 156.088,699.203 135.921,687.203 122,664.5C 121.51,663.207 121.343,661.873 121.5,660.5 Z"/></g>
<g><path style="opacity:1" fill="#d4d4d4" d="M 199.5,601.5 C 201.677,601.586 203.677,602.253 205.5,603.5C 208.543,608.209 212.543,611.876 217.5,614.5C 223.497,618.795 227.83,624.461 230.5,631.5C 231.429,630.311 231.762,628.978 231.5,627.5C 235.029,657.873 223.362,680.54 196.5,695.5C 188.01,694.67 179.343,694.17 170.5,694C 167.768,693.587 165.101,692.92 162.5,692C 155.844,688.672 149.177,685.338 142.5,682C 139.924,678.937 137.591,675.771 135.5,672.5C 137.113,673.692 138.78,674.692 140.5,675.5C 140.414,676.496 140.748,677.329 141.5,678C 146.763,680.086 151.43,683.086 155.5,687C 169.618,692.136 183.952,692.803 198.5,689C 208.348,684.318 215.682,677.151 220.5,667.5C 220.5,667.167 220.5,666.833 220.5,666.5C 223.057,664.068 224.89,661.068 226,657.5C 228.364,644.476 226.03,632.476 219,621.5C 212.247,614.768 205.747,608.101 199.5,601.5 Z"/></g>
<g><path style="opacity:1" fill="#e3e3e3" d="M 663.5,685.5 C 668.89,687.695 674.223,690.195 679.5,693C 687.111,694.478 694.778,694.812 702.5,694C 709.193,691.879 715.86,689.546 722.5,687C 727.912,681.588 733.412,676.088 739,670.5C 739.791,669.255 740.291,667.922 740.5,666.5C 740.833,666.5 741.167,666.5 741.5,666.5C 744.24,662.483 747.073,658.483 750,654.5C 757.397,637.625 758.397,620.292 753,602.5C 748.014,592.839 740.847,585.006 731.5,579C 725.912,577.711 720.245,577.211 714.5,577.5C 712.566,576.89 710.899,575.89 709.5,574.5C 716.894,573.147 724.227,573.313 731.5,575C 744.577,582.277 753.077,593.11 757,607.5C 759.527,622.729 758.527,637.729 754,652.5C 747.678,667.121 737.845,678.954 724.5,688C 718.053,690.205 711.72,692.705 705.5,695.5C 697.863,696.602 690.197,696.768 682.5,696C 677.473,694.983 672.806,693.149 668.5,690.5C 666.994,688.599 665.327,686.932 663.5,685.5 Z"/></g>
<g><path style="opacity:1" fill="#a5a5a5" d="M 744.5,652.5 C 743.492,656.194 742.325,659.861 741,663.5C 720.506,690.418 695.339,696.418 665.5,681.5C 664.694,680.272 663.694,679.272 662.5,678.5C 666.002,679.917 669.669,680.584 673.5,680.5C 675.96,681.891 678.626,683.058 681.5,684C 701.43,687.686 718.764,682.686 733.5,669C 737.44,663.672 741.107,658.172 744.5,652.5 Z"/></g>
<g><path style="opacity:1" fill="#d4d4d4" d="M 740.5,666.5 C 740.291,667.922 739.791,669.255 739,670.5C 733.412,676.088 727.912,681.588 722.5,687C 715.86,689.546 709.193,691.879 702.5,694C 694.778,694.812 687.111,694.478 679.5,693C 674.223,690.195 668.89,687.695 663.5,685.5C 659.029,682.198 654.696,678.698 650.5,675C 649.177,674.184 648.511,673.017 648.5,671.5C 653.17,673.838 657.836,676.172 662.5,678.5C 663.694,679.272 664.694,680.272 665.5,681.5C 665.953,682.458 666.619,683.292 667.5,684C 672.135,685.972 676.469,688.306 680.5,691C 694.735,694.006 708.401,692.339 721.5,686C 728.009,679.658 734.342,673.158 740.5,666.5 Z"/></g>
<g><path style="opacity:1" fill="#c0c0c0" d="M 220.5,667.5 C 215.682,677.151 208.348,684.318 198.5,689C 183.952,692.803 169.618,692.136 155.5,687C 151.43,683.086 146.763,680.086 141.5,678C 140.748,677.329 140.414,676.496 140.5,675.5C 143.053,676.805 145.72,677.805 148.5,678.5C 150.663,680.083 152.996,681.416 155.5,682.5C 155.414,683.496 155.748,684.329 156.5,685C 161.236,687.435 166.236,689.101 171.5,690C 192.196,691.647 208.529,684.147 220.5,667.5 Z"/></g>
<g><path style="opacity:1" fill="#bfbfbf" d="M 734.5,586.5 C 738.672,588.158 742.172,590.825 745,594.5C 753.13,608.069 755.796,622.735 753,638.5C 749.43,647.969 745.597,657.302 741.5,666.5C 741.167,666.5 740.833,666.5 740.5,666.5C 734.342,673.158 728.009,679.658 721.5,686C 708.401,692.339 694.735,694.006 680.5,691C 676.469,688.306 672.135,685.972 667.5,684C 666.619,683.292 665.953,682.458 665.5,681.5C 695.339,696.418 720.506,690.418 741,663.5C 742.325,659.861 743.492,656.194 744.5,652.5C 747.277,647.688 749.777,642.688 752,637.5C 752.667,630.167 752.667,622.833 752,615.5C 751.202,610.606 749.702,605.939 747.5,601.5C 743.377,596.21 739.044,591.21 734.5,586.5 Z"/></g>
<g><path style="opacity:1" fill="#848484" d="M 672.5,706.5 C 673.404,707.209 673.737,708.209 673.5,709.5C 673.238,710.978 673.571,712.311 674.5,713.5C 684.416,715.502 686.083,720.335 679.5,728C 677.5,728.667 675.5,729.333 673.5,730C 610.479,740.559 547.479,751.226 484.5,762C 474.46,763.902 465.126,767.568 456.5,773C 445.406,776.076 434.406,776.243 423.5,773.5C 430.439,773.511 437.105,772.344 443.5,770C 448.601,766.561 453.934,763.561 459.5,761C 526.585,750.029 593.585,738.696 660.5,727C 670.479,723.821 674.479,716.987 672.5,706.5 Z"/></g>
<g><path style="opacity:1" fill="#909090" d="M 673.5,709.5 C 677.319,709.414 680.985,710.081 684.5,711.5C 690.537,722.93 687.203,730.097 674.5,733C 613.127,743.118 551.794,753.451 490.5,764C 479.323,765.281 468.989,768.948 459.5,775C 443.525,779.982 427.859,779.482 412.5,773.5C 416.167,773.5 419.833,773.5 423.5,773.5C 434.406,776.243 445.406,776.076 456.5,773C 465.126,767.568 474.46,763.902 484.5,762C 547.479,751.226 610.479,740.559 673.5,730C 675.5,729.333 677.5,728.667 679.5,728C 686.083,720.335 684.416,715.502 674.5,713.5C 673.571,712.311 673.238,710.978 673.5,709.5 Z"/></g>
<g><path style="opacity:1" fill="#999999" d="M 194.5,730.5 C 198.329,732.164 202.329,733.331 206.5,734C 267.526,744.122 328.526,754.289 389.5,764.5C 391.434,765.11 393.101,766.11 394.5,767.5C 330.653,755.538 266.32,744.705 201.5,735C 198.728,733.943 196.395,732.443 194.5,730.5 Z"/></g>
<g><path style="opacity:1" fill="#8d8d8d" d="M 194.5,730.5 C 194.5,730.167 194.5,729.833 194.5,729.5C 258.889,739.818 323.222,750.652 387.5,762C 388.381,762.708 389.047,763.542 389.5,764.5C 328.526,754.289 267.526,744.122 206.5,734C 202.329,733.331 198.329,732.164 194.5,730.5 Z"/></g>
<g><path style="opacity:1" fill="#9f9f9f" d="M 684.5,711.5 C 687.188,712.024 688.688,713.691 689,716.5C 690.112,722.163 688.612,726.996 684.5,731C 680.769,733.532 676.769,735.532 672.5,737C 628.151,744.704 583.818,752.204 539.5,759.5C 539.167,759.5 538.833,759.5 538.5,759.5C 531.518,760.124 524.518,760.624 517.5,761C 505.724,763.851 493.724,765.851 481.5,767C 471.416,770.876 461.749,775.543 452.5,781C 436.22,783.89 421.22,781.057 407.5,772.5C 409.216,772.629 410.883,772.962 412.5,773.5C 427.859,779.482 443.525,779.982 459.5,775C 468.989,768.948 479.323,765.281 490.5,764C 551.794,753.451 613.127,743.118 674.5,733C 687.203,730.097 690.537,722.93 684.5,711.5 Z"/></g>
<g><path style="opacity:1" fill="#b7b7b7" d="M 667.5,702.5 C 673.118,704.205 678.785,706.039 684.5,708C 692.236,712.541 694.403,719.041 691,727.5C 686.37,734.566 679.87,738.733 671.5,740C 639.099,744.867 606.766,750.2 574.5,756C 562.825,757.167 551.158,758.334 539.5,759.5C 583.818,752.204 628.151,744.704 672.5,737C 676.769,735.532 680.769,733.532 684.5,731C 688.612,726.996 690.112,722.163 689,716.5C 688.688,713.691 687.188,712.024 684.5,711.5C 680.985,710.081 677.319,709.414 673.5,709.5C 673.737,708.209 673.404,707.209 672.5,706.5C 671.328,704.461 669.662,703.128 667.5,702.5 Z"/></g>
<g><path style="opacity:1" fill="#a6a6a6" d="M 189.5,728.5 C 191.042,729.301 192.708,729.634 194.5,729.5C 194.5,729.833 194.5,730.167 194.5,730.5C 196.395,732.443 198.728,733.943 201.5,735C 266.32,744.705 330.653,755.538 394.5,767.5C 397.877,769.175 401.211,770.842 404.5,772.5C 403.5,772.5 402.5,772.5 401.5,772.5C 395.308,770.357 388.974,768.524 382.5,767C 372.225,766.012 362.225,764.012 352.5,761C 299.803,754.307 247.469,745.807 195.5,735.5C 193.237,733.25 191.237,730.917 189.5,728.5 Z"/></g>
<g><path style="opacity:1" fill="#e0e0e0" d="M 178.5,726.5 C 180.117,727.038 181.784,727.371 183.5,727.5C 186.268,730.771 189.268,733.938 192.5,737C 196.447,738.154 200.447,738.987 204.5,739.5C 206.316,741.137 208.316,742.637 210.5,744C 244.563,748.899 278.563,754.233 312.5,760C 313.056,760.383 313.389,760.883 313.5,761.5C 276.365,755.672 239.198,750.005 202,744.5C 199.336,743.669 197.17,742.169 195.5,740C 187.894,737.889 182.227,733.389 178.5,726.5 Z"/></g>
<g><path style="opacity:1" fill="#bababa" d="M 183.5,727.5 C 185.5,727.833 187.5,728.167 189.5,728.5C 191.237,730.917 193.237,733.25 195.5,735.5C 247.469,745.807 299.803,754.307 352.5,761C 362.225,764.012 372.225,766.012 382.5,767C 388.974,768.524 395.308,770.357 401.5,772.5C 335.959,761.041 270.293,750.041 204.5,739.5C 200.447,738.987 196.447,738.154 192.5,737C 189.268,733.938 186.268,730.771 183.5,727.5 Z"/></g>
<g><path style="opacity:1" fill="#e5e5e5" d="M 693.5,730.5 C 689.487,736.869 683.821,741.369 676.5,744C 629.363,751.713 582.197,759.213 535,766.5C 531.322,768.169 527.489,769.336 523.5,770C 508.416,772.202 493.416,774.869 478.5,778C 469.831,782.502 460.831,786.169 451.5,789C 441.115,789.87 430.782,789.536 420.5,788C 411.789,784.422 403.455,780.255 395.5,775.5C 397.527,775.338 399.527,775.505 401.5,776C 408.33,781.248 415.996,784.581 424.5,786C 442.66,789.043 459.66,786.043 475.5,777C 481.6,775.452 487.6,773.785 493.5,772C 554.483,762.336 615.483,752.336 676.5,742C 682.891,739.145 688.557,735.312 693.5,730.5 Z"/></g>
<g><path style="opacity:1" fill="#d1d1d1" d="M 641.5,680.5 C 648.743,686.676 656.076,692.676 663.5,698.5C 671.677,701.422 680.01,703.922 688.5,706C 690.492,708.957 692.825,711.457 695.5,713.5C 695.666,718.511 695.499,723.511 695,728.5C 694.722,729.416 694.222,730.082 693.5,730.5C 688.557,735.312 682.891,739.145 676.5,742C 615.483,752.336 554.483,762.336 493.5,772C 487.6,773.785 481.6,775.452 475.5,777C 459.66,786.043 442.66,789.043 424.5,786C 415.996,784.581 408.33,781.248 401.5,776C 399.527,775.505 397.527,775.338 395.5,775.5C 368.076,771.263 340.743,766.596 313.5,761.5C 313.389,760.883 313.056,760.383 312.5,760C 278.563,754.233 244.563,748.899 210.5,744C 208.316,742.637 206.316,741.137 204.5,739.5C 270.293,750.041 335.959,761.041 401.5,772.5C 418.561,783.952 437.227,786.786 457.5,781C 460.806,778.798 464.306,776.965 468,775.5C 473.445,774.794 478.612,773.294 483.5,771C 498.24,769.132 512.907,766.799 527.5,764C 531.54,763.176 535.207,761.676 538.5,759.5C 538.833,759.5 539.167,759.5 539.5,759.5C 551.158,758.334 562.825,757.167 574.5,756C 606.766,750.2 639.099,744.867 671.5,740C 679.87,738.733 686.37,734.566 691,727.5C 694.403,719.041 692.236,712.541 684.5,708C 678.785,706.039 673.118,704.205 667.5,702.5C 666.609,701.89 665.609,701.557 664.5,701.5C 663.319,699.933 661.653,699.099 659.5,699C 657.333,697.241 655.666,695.074 654.5,692.5C 648.874,689.873 644.541,685.873 641.5,680.5 Z"/></g>
<g><path style="opacity:1" fill="#b2b2b2" d="M 538.5,759.5 C 535.207,761.676 531.54,763.176 527.5,764C 512.907,766.799 498.24,769.132 483.5,771C 478.612,773.294 473.445,774.794 468,775.5C 464.306,776.965 460.806,778.798 457.5,781C 437.227,786.786 418.561,783.952 401.5,772.5C 402.5,772.5 403.5,772.5 404.5,772.5C 405.5,772.5 406.5,772.5 407.5,772.5C 421.22,781.057 436.22,783.89 452.5,781C 461.749,775.543 471.416,770.876 481.5,767C 493.724,765.851 505.724,763.851 517.5,761C 524.518,760.624 531.518,760.124 538.5,759.5 Z"/></g>
</svg>
